<svg width="20px" height="19px" xmlns="http://www.w3.org/2000/svg">
  <path d="M8 .5c2.071 0 3.946.84 5.303 2.197A7.477 7.477 0 0115.5 8a7.467 7.467 0 01-1.628 4.666h0l4.603 4.602-.707.707-4.57-4.569A7.474 7.474 0 018 15.5a7.477 7.477 0 01-5.303-2.197A7.477 7.477 0 01.5 8c0-2.071.84-3.946 2.197-5.303A7.477 7.477 0 018 .5zm0 1a6.48 6.48 0 00-4.596 1.904A6.48 6.48 0 001.5 8a6.48 6.48 0 001.904 4.596A6.48 6.48 0 008 14.5a6.48 6.48 0 004.596-1.904A6.48 6.48 0 0014.5 8a6.48 6.48 0 00-1.904-4.596A6.48 6.48 0 008 1.5z" fill="#D8D8D8" fill-rule="nonzero" stroke="#111"/>
</svg>
